<svg xmlns="http://www.w3.org/2000/svg" width="26" height="27" viewBox="0 0 26 27">
  <metadata><?xpacket begin="﻿" id="W5M0MpCehiHzreSzNTczkc9d"?>
<x:xmpmeta xmlns:x="adobe:ns:meta/" x:xmptk="Adobe XMP Core 5.6-c138 79.159824, 2016/09/14-01:09:01        ">
   <rdf:RDF xmlns:rdf="http://www.w3.org/1999/02/22-rdf-syntax-ns#">
      <rdf:Description rdf:about=""/>
   </rdf:RDF>
</x:xmpmeta>
                                                                                                    
                                                                                                    
                                                                                                    
                                                                                                    
                                                                                                    
                                                                                                    
                                                                                                    
                                                                                                    
                                                                                                    
                                                                                                    
                                                                                                    
                                                                                                    
                                                                                                    
                                                                                                    
                                                                                                    
                                                                                                    
                                                                                                    
                                                                                                    
                                                                                                    
                                                                                                    
                           
<?xpacket end="w"?></metadata>
<defs>
    <style>
      .cls-1 {
        fill-rule: evenodd;
      }
    </style>
  </defs>
  <path class="cls-1" d="M24.738,4.015A7.383,7.383,0,0,0,19.775.309c-2.432-.294-5.084,1.208-6.795,3.046a9.492,9.492,0,0,0-2.142-2A6.044,6.044,0,0,0,7.526.3,7.449,7.449,0,0,0,2.072,3.517,7.923,7.923,0,0,0,.651,10.463c0.821,3.006,3.943,6.3,6.955,9.484a29.983,29.983,0,0,1,4.433,5.3l0.891,1.736,0.891-1.736a34.456,34.456,0,0,1,4.553-5.717c2.692-3,5.474-6.092,6.685-8.936A7.285,7.285,0,0,0,24.738,4.015ZM16.9,18.16a57.634,57.634,0,0,0-3.983,4.732,55.151,55.151,0,0,0-3.863-4.356c-2.252-2.376-4.753-5.016-5.924-7.27h7.345l-0.8,2.061H7.506v2.031H8.887l-0.67,1.726,1.861,0.741,0.961-2.467H13.01l-1.641,4.1,1.851,0.772,1.951-4.884h4.2C18.564,16.3,17.723,17.256,16.9,18.16Zm-5.074-4.833,0.8-2.051h2.021l-0.821,2.051h-2ZM23.217,9.782a17.443,17.443,0,0,1-2.192,3.534H15.992l0.82-2.041h2.682V9.244H17.623l1.531-3.818L17.3,4.655l-1.841,4.59H13.42l0.54-1.381L12.1,7.122,11.279,9.244l-8.846-.01a6.109,6.109,0,0,1,1.241-4.5A5.556,5.556,0,0,1,7.526,2.329c2.662,0,4.513,3.158,4.533,3.2L12.85,6.919l0.9-1.32c1.211-1.767,3.763-3.523,5.784-3.28A5.4,5.4,0,0,1,23,5.02,5.178,5.178,0,0,1,23.217,9.782Z"/>
</svg>
